<svg width="169" height="169" viewBox="0 0 169 169" fill="none" xmlns="http://www.w3.org/2000/svg">
<g filter="url(#filter0_d_201_13657)">
<path d="M103.318 80.4997C103.318 90.8756 94.8773 99.3177 84.4959 99.3177C74.1144 99.3177 65.6816 90.8756 65.6816 80.4997C65.6816 70.1237 74.122 61.6816 84.4959 61.6816C94.8697 61.6816 103.318 70.1237 103.318 80.4997Z" fill="white"/>
<path d="M92.6073 5.28075C92.6073 2.36555 94.9729 -1.52588e-05 97.8881 -1.52588e-05C100.245 -1.52588e-05 102.274 1.56087 102.932 3.76194C131.637 10.6278 154.396 33.4125 161.23 62.127C163.431 62.7761 165 64.8216 165 67.1859C165 70.0934 162.627 72.459 159.719 72.459C156.812 72.459 154.446 70.0934 154.446 67.1859C154.446 65.5765 155.169 64.073 156.392 63.0796C149.945 36.329 128.721 15.0797 101.978 8.60784C100.984 9.82314 99.4885 10.5539 97.8881 10.5539C94.9729 10.5539 92.6073 8.18829 92.6073 5.28075Z" fill="white"/>
<path d="M4.00037 67.1774C4.00037 64.7544 5.60206 62.709 7.85285 62.093C8.66646 58.6766 9.71725 55.2922 10.9823 52.0148C20.1895 28.1959 41.2322 9.7815 66.0292 3.78533C66.6859 1.59192 68.7238 0.0322952 71.0804 0.0322952C73.988 0.0322952 76.3535 2.39787 76.3535 5.31306C76.3535 8.22826 73.988 10.5862 71.0804 10.5862C69.4621 10.5862 67.9599 9.85546 66.9652 8.63123C43.8197 14.306 24.1734 31.5383 15.5821 53.7887C14.4076 56.8033 13.4295 59.9404 12.6669 63.1349C13.849 64.1283 14.5555 65.6076 14.5555 67.1761C14.5555 70.0837 12.1823 72.4492 9.27475 72.4492C6.3672 72.4492 4.00164 70.0837 4.00164 67.1761L4.00037 67.1774Z" fill="white"/>
<path d="M92.5983 155.718C92.5983 152.811 94.9639 150.445 97.8791 150.445C99.4311 150.445 100.894 151.135 101.887 152.293C128.565 145.862 149.797 124.703 156.327 98.0597C155.119 97.0663 154.405 95.5793 154.405 93.9853C154.405 91.0777 156.771 88.7122 159.686 88.7122C162.601 88.7122 164.967 91.0777 164.967 93.9853C164.967 96.3751 163.374 98.4129 161.147 99.0531C154.232 127.587 131.513 150.24 102.963 157.098C102.355 159.349 100.278 160.999 97.8791 160.999C94.9639 160.999 92.5983 158.633 92.5983 155.718Z" fill="white"/>
<path d="M4.03284 93.9776C4.03284 91.0701 6.39841 88.7045 9.3136 88.7045C12.2288 88.7045 14.5867 91.0701 14.5867 93.9776C14.5867 95.5296 13.8968 96.9923 12.7389 97.9946C19.2362 124.614 40.4268 145.788 67.0538 152.261C68.0472 151.103 69.5176 150.413 71.0708 150.413C73.9783 150.413 76.3516 152.779 76.3516 155.686C76.3516 158.594 73.9783 160.966 71.0708 160.966C68.6644 160.966 66.5781 159.314 65.9788 157.056C37.5027 150.173 14.8418 127.537 7.92614 99.0696C5.68427 98.4537 4.03284 96.3763 4.03284 93.9776Z" fill="white"/>
<path d="M124.598 130.182C124.598 133.097 122.233 135.463 119.318 135.463C118.43 135.463 117.577 135.25 116.813 134.831C107.071 140.653 95.9093 143.725 84.4603 143.725C73.0112 143.725 62.0454 140.703 52.3702 134.978C51.5821 135.413 50.6945 135.652 49.7827 135.652C46.8752 135.652 44.502 133.286 44.502 130.371C44.502 127.456 46.8752 125.098 49.7827 125.098C52.6903 125.098 55.0635 127.463 55.0635 130.371C55.0635 130.527 55.0635 130.691 55.0469 130.848C63.934 136.047 74.0862 138.799 84.459 138.799C94.8318 138.799 105.132 136.006 114.069 130.717C114.044 130.544 114.036 130.363 114.036 130.182C114.036 127.275 116.409 124.909 119.316 124.909C122.224 124.909 124.597 127.275 124.597 130.182H124.598Z" fill="white"/>
<path d="M119.036 25.3465C118.1 25.3465 117.18 25.6015 116.391 26.0606C106.749 20.3935 95.7352 17.4043 84.4583 17.4043C73.1813 17.4043 62.0931 20.419 52.4179 26.1269C51.6132 25.65 50.6925 25.3962 49.7399 25.3962C46.8324 25.3962 44.4668 27.7618 44.4668 30.677C44.4668 33.5922 46.8324 35.9501 49.7399 35.9501C52.6474 35.9501 55.0207 33.5845 55.0207 30.677C55.0207 30.5622 55.0207 30.4385 55.013 30.3237C63.8912 25.0914 74.06 22.3318 84.4583 22.3318C94.8565 22.3318 104.918 25.0672 113.78 30.2408C113.772 30.3645 113.763 30.4959 113.763 30.6272C113.763 33.5348 116.129 35.9003 119.036 35.9003C121.944 35.9003 124.317 33.5348 124.317 30.6272C124.317 27.7197 121.952 25.3465 119.036 25.3465ZM52.2445 29.1161L52.9994 28.6481C53.0071 28.6404 53.016 28.6404 53.0236 28.6404L52.2432 29.1174L52.2445 29.1161Z" fill="white"/>
<path d="M77.9203 108.327V113.255H58.7752C57.8557 114.922 56.0972 115.998 54.1422 115.998C51.2347 115.998 48.8691 113.632 48.8691 110.717C48.8691 108.721 50.0194 106.907 51.7525 106.019V86.332H56.68V106.093C57.616 106.602 58.3722 107.382 58.8568 108.327H77.9203Z" fill="white"/>
<path d="M77.913 47.7362V52.6637H59.0051C58.4963 53.6737 57.6827 54.4873 56.6803 54.9885V74.7827H51.7528V54.9145C50.0861 54.0027 49.0098 52.2455 49.0098 50.2905C49.0098 47.3753 51.383 45.0098 54.2905 45.0098C56.2365 45.0098 57.9862 46.0771 58.898 47.7362H77.9118H77.913Z" fill="white"/>
<path d="M120.153 50.4311C120.153 52.4269 119.012 54.2416 117.27 55.1291V74.718H112.343V55.0552C111.357 54.5132 110.569 53.683 110.101 52.6654H91.1035V47.7378H110.348C111.284 46.1604 113.017 45.1504 114.882 45.1504C117.789 45.1504 120.155 47.516 120.155 50.4311H120.153Z" fill="white"/>
<path d="M120.203 110.988C120.203 113.896 117.838 116.261 114.93 116.261C112.868 116.261 111.02 115.063 110.166 113.256H91.1113V108.328H110.371C110.848 107.515 111.522 106.841 112.343 106.39V86.2666H117.27V106.259C119.036 107.137 120.202 108.968 120.202 110.99L120.203 110.988Z" fill="white"/>
<path d="M138.972 112.491C139.423 113.279 139.662 114.174 139.662 115.095C139.662 118.01 137.296 120.376 134.381 120.376C131.466 120.376 129.108 118.01 129.108 115.095C129.108 112.18 131.473 109.822 134.381 109.822C134.52 109.822 134.668 109.83 134.808 109.839C139.974 100.985 142.693 90.8822 142.693 80.5655C142.693 70.2488 139.933 59.9831 134.684 51.0794C134.52 51.096 134.355 51.1037 134.183 51.1037C131.276 51.1037 128.902 48.7381 128.902 45.8306C128.902 42.923 131.276 40.5498 134.183 40.5498C137.091 40.5498 139.464 42.9154 139.464 45.8306C139.464 46.7092 139.242 47.5878 138.815 48.3606C144.58 58.0601 147.619 69.1814 147.619 80.5655C147.619 91.9495 144.63 102.849 138.97 112.491H138.972Z" fill="white"/>
<path d="M39.9262 115.251C39.9262 118.159 37.5607 120.524 34.6455 120.524C31.7303 120.524 29.3724 118.159 29.3724 115.251C29.3724 114.323 29.6108 113.444 30.0546 112.656C24.3211 102.988 21.2988 91.9092 21.2988 80.5659C21.2988 69.2227 24.288 58.2914 29.9564 48.648C29.4642 47.8434 29.2002 46.9073 29.2002 45.9381C29.2002 43.0306 31.5734 40.665 34.481 40.665C37.3885 40.665 39.7541 43.0306 39.7541 45.9381C39.7541 48.8457 37.1908 51.4 34.1685 51.2113C28.9694 60.0652 26.2263 70.1919 26.2263 80.5659C26.2263 90.94 28.986 101.107 34.2017 109.987C34.3496 109.979 34.4975 109.97 34.6455 109.97C37.5607 109.97 39.9262 112.336 39.9262 115.251Z" fill="white"/>
<path d="M102.25 125.147C102.25 127.398 100.418 129.23 98.1675 129.23H70.4961C68.2453 129.23 66.4141 127.398 66.4141 125.147C66.4141 122.897 68.2453 121.065 70.4961 121.065H98.1675C100.418 121.065 102.25 122.897 102.25 125.147Z" fill="white"/>
<path d="M133.27 66.6514V94.3304C133.27 96.5812 131.438 98.4124 129.188 98.4124C126.937 98.4124 125.105 96.5812 125.105 94.3304V66.6514C125.105 64.4006 126.937 62.5693 129.188 62.5693C131.438 62.5693 133.27 64.4006 133.27 66.6514Z" fill="white"/>
<path d="M43.9082 66.7178V94.3892C43.9082 96.6399 42.077 98.4712 39.8262 98.4712C37.5754 98.4712 35.7441 96.6399 35.7441 94.3892V66.7178C35.7441 64.467 37.5754 62.6357 39.8262 62.6357C42.077 62.6357 43.9082 64.467 43.9082 66.7178Z" fill="white"/>
<path d="M102.611 35.9004C102.611 38.1512 100.779 39.9824 98.5286 39.9824H70.8496C68.5988 39.9824 66.7676 38.1512 66.7676 35.9004C66.7676 34.7756 67.2279 33.7567 67.9663 33.0171C68.7059 32.2774 69.7236 31.8184 70.8496 31.8184H98.5286C100.779 31.8184 102.611 33.6496 102.611 35.9004Z" fill="white"/>
</g>
<defs>
<filter id="filter0_d_201_13657" x="0" y="0" width="169" height="168.999" filterUnits="userSpaceOnUse" color-interpolation-filters="sRGB">
<feFlood flood-opacity="0" result="BackgroundImageFix"/>
<feColorMatrix in="SourceAlpha" type="matrix" values="0 0 0 0 0 0 0 0 0 0 0 0 0 0 0 0 0 0 127 0" result="hardAlpha"/>
<feOffset dy="4"/>
<feGaussianBlur stdDeviation="2"/>
<feComposite in2="hardAlpha" operator="out"/>
<feColorMatrix type="matrix" values="0 0 0 0 0 0 0 0 0 0 0 0 0 0 0 0 0 0 0.25 0"/>
<feBlend mode="normal" in2="BackgroundImageFix" result="effect1_dropShadow_201_13657"/>
<feBlend mode="normal" in="SourceGraphic" in2="effect1_dropShadow_201_13657" result="shape"/>
</filter>
</defs>
</svg>
