<svg width="513" height="67" viewBox="0 0 513 67" fill="none" xmlns="http://www.w3.org/2000/svg">
<g filter="url(#filter0_d_201_13655)">
<path d="M24.5298 52.978L36.6798 6.16C37.2468 4.054 38.4618 0.652 42.4308 0.652C46.3998 0.652 47.6148 4.054 48.1818 6.16L60.3318 52.978C60.5748 53.869 61.3038 54.436 61.8708 54.436C62.8428 54.436 63.1668 53.221 63.2478 52.654L76.0458 1.3H80.5008L67.0548 53.869C66.0018 57.838 63.8958 58.648 61.7088 58.648C57.8208 58.648 56.6868 55.813 56.0388 53.464L43.7268 6.889C43.6458 6.484 43.3218 5.269 42.4308 5.269C41.5398 5.269 41.2158 6.484 41.1348 6.889L28.8228 53.464C28.1748 55.813 27.0408 58.648 23.1528 58.648C20.9658 58.648 18.8598 57.838 17.8068 53.869L4.36084 1.3H8.81584L21.6138 52.654C21.6948 53.221 22.0188 54.436 22.9908 54.436C23.5578 54.436 24.2868 53.869 24.5298 52.978ZM112.126 0.652C132.7 0.652 139.504 9.157 139.504 29.65C139.504 50.143 132.7 58.648 112.126 58.648C91.5516 58.648 84.5856 50.143 84.5856 29.65C84.5856 9.157 91.5516 0.652 112.126 0.652ZM89.2836 29.65C89.2836 47.713 93.7386 54.76 112.045 54.76C130.351 54.76 134.806 47.713 134.806 29.65C134.806 11.587 130.351 4.54 112.045 4.54C93.7386 4.54 89.2836 11.587 89.2836 29.65ZM149.25 58V9.967C149.25 4.297 151.842 1.3 157.755 1.3H181.65C192.018 1.3 194.934 8.185 194.934 17.905C194.934 27.949 192.423 34.915 182.298 34.915H169.743V35.32L196.311 58H189.912L164.883 36.454C164.073 35.725 163.344 35.239 163.344 34.186V32.89C163.344 31.675 164.073 31.027 165.288 31.027H182.055C189.831 31.027 190.236 25.114 190.236 17.905C190.236 10.291 189.264 5.188 180.84 5.188H157.674C155.811 5.188 153.624 6.079 153.624 8.995V58H149.25ZM252.719 58H246.158L217.565 36.049C213.434 32.809 212.705 30.541 212.705 28.84C212.705 27.382 213.515 25.357 216.836 22.684L243.404 1.3H249.722L220.724 24.79C219.185 26.086 217.16 27.22 217.16 28.921C217.16 30.784 219.509 32.485 221.372 33.862L252.719 58ZM205.253 58V1.3H209.627V58H205.253ZM256.89 1.3L276.816 53.059C277.221 54.112 277.788 54.274 278.193 54.274C278.598 54.274 279.165 54.112 279.57 53.059L299.496 1.3H304.437L283.134 54.922C282.567 56.461 281.433 58.648 278.193 58.648C274.953 58.648 273.819 56.461 273.252 54.922L251.949 1.3H256.89ZM351.452 58H317.837C312.815 58 310.142 56.056 310.142 50.386V8.833C310.142 3.163 312.815 1.3 317.837 1.3H351.128V5.188H317.999C314.921 5.188 314.516 6.403 314.516 8.833V27.058H350.318V30.946H314.516V50.386C314.516 52.816 314.921 54.112 317.999 54.112H351.452V58ZM360.372 58V9.967C360.372 4.297 362.964 1.3 368.877 1.3H392.772C403.14 1.3 406.056 8.185 406.056 17.905C406.056 27.949 403.545 34.915 393.42 34.915H380.865V35.32L407.433 58H401.034L376.005 36.454C375.195 35.725 374.466 35.239 374.466 34.186V32.89C374.466 31.675 375.195 31.027 376.41 31.027H393.177C400.953 31.027 401.358 25.114 401.358 17.905C401.358 10.291 400.386 5.188 391.962 5.188H368.796C366.933 5.188 364.746 6.079 364.746 8.995V58H360.372ZM414.837 58V54.112H446.832C450.234 54.112 453.474 52.33 453.474 44.392C453.474 40.666 452.664 37.264 446.346 35.077L423.747 27.301C417.672 25.195 413.946 22.036 413.946 14.098C413.946 5.998 417.834 1.3 426.744 1.3H455.499V5.188H426.744C420.831 5.188 418.644 7.618 418.644 14.098C418.644 17.743 418.887 21.145 424.395 23.089L446.427 30.865C453.231 33.214 458.172 35.482 458.172 44.392C458.172 51.358 455.58 58 446.832 58H414.837ZM508.39 58H474.775C469.753 58 467.08 56.056 467.08 50.386V8.833C467.08 3.163 469.753 1.3 474.775 1.3H508.066V5.188H474.937C471.859 5.188 471.454 6.403 471.454 8.833V27.058H507.256V30.946H471.454V50.386C471.454 52.816 471.859 54.112 474.937 54.112H508.39V58Z" fill="#FFF0F0"/>
</g>
<defs>
<filter id="filter0_d_201_13655" x="0.361328" y="0.652344" width="512.029" height="65.9961" filterUnits="userSpaceOnUse" color-interpolation-filters="sRGB">
<feFlood flood-opacity="0" result="BackgroundImageFix"/>
<feColorMatrix in="SourceAlpha" type="matrix" values="0 0 0 0 0 0 0 0 0 0 0 0 0 0 0 0 0 0 127 0" result="hardAlpha"/>
<feOffset dy="4"/>
<feGaussianBlur stdDeviation="2"/>
<feComposite in2="hardAlpha" operator="out"/>
<feColorMatrix type="matrix" values="0 0 0 0 0 0 0 0 0 0 0 0 0 0 0 0 0 0 0.25 0"/>
<feBlend mode="normal" in2="BackgroundImageFix" result="effect1_dropShadow_201_13655"/>
<feBlend mode="normal" in="SourceGraphic" in2="effect1_dropShadow_201_13655" result="shape"/>
</filter>
</defs>
</svg>
