<svg width="18" height="16" viewBox="0 0 18 16" fill="none" xmlns="http://www.w3.org/2000/svg">
<g clip-path="url(#clip0_225_15734)">
<path d="M16.3636 9.59844H1.63636C0.732273 9.59844 0 8.88244 0 7.99844C0 7.11444 0.732273 6.39844 1.63636 6.39844H16.3636C17.2677 6.39844 18 7.11524 18 7.99844C18 8.88164 17.2677 9.59844 16.3636 9.59844Z" fill="url(#paint0_linear_225_15734)"/>
<path d="M18 1.6C18 0.716 17.2677 0 16.3636 0H1.63636C0.732273 0 0 0.716 0 1.6C0 2.484 0.732273 3.2 1.63636 3.2H16.3636C17.2677 3.2 18 2.484 18 1.6Z" fill="url(#paint1_linear_225_15734)"/>
<path d="M18 14.3998C18 13.5158 17.2677 12.7998 16.3636 12.7998H1.63636C0.732273 12.7998 0 13.5158 0 14.3998C0 15.2838 0.732273 15.9998 1.63636 15.9998H16.3636C17.2677 15.9998 18 15.2838 18 14.3998Z" fill="url(#paint2_linear_225_15734)"/>
</g>
<defs>
<linearGradient id="paint0_linear_225_15734" x1="4.45909" y1="12.76" x2="13.3229" y2="3.03811" gradientUnits="userSpaceOnUse">
<stop stop-color="#00E641"/>
<stop offset="0.15" stop-color="#00E468"/>
<stop offset="0.36" stop-color="#00E29B"/>
<stop offset="0.55" stop-color="#00E0C3"/>
<stop offset="0.73" stop-color="#00DFE0"/>
<stop offset="0.89" stop-color="#00DEF1"/>
<stop offset="1" stop-color="#00DEF8"/>
</linearGradient>
<linearGradient id="paint1_linear_225_15734" x1="4.45909" y1="6.3616" x2="13.3229" y2="-3.36033" gradientUnits="userSpaceOnUse">
<stop stop-color="#00E641"/>
<stop offset="0.15" stop-color="#00E468"/>
<stop offset="0.36" stop-color="#00E29B"/>
<stop offset="0.55" stop-color="#00E0C3"/>
<stop offset="0.73" stop-color="#00DFE0"/>
<stop offset="0.89" stop-color="#00DEF1"/>
<stop offset="1" stop-color="#00DEF8"/>
</linearGradient>
<linearGradient id="paint2_linear_225_15734" x1="4.45909" y1="19.1614" x2="13.3229" y2="9.43948" gradientUnits="userSpaceOnUse">
<stop stop-color="#00E641"/>
<stop offset="0.15" stop-color="#00E468"/>
<stop offset="0.36" stop-color="#00E29B"/>
<stop offset="0.55" stop-color="#00E0C3"/>
<stop offset="0.73" stop-color="#00DFE0"/>
<stop offset="0.89" stop-color="#00DEF1"/>
<stop offset="1" stop-color="#00DEF8"/>
</linearGradient>
<clipPath id="clip0_225_15734">
<rect width="18" height="16" fill="white"/>
</clipPath>
</defs>
</svg>
